<?xml version="1.0" encoding="UTF-8"?>
<svg id="Calque_1" data-name="Calque 1" xmlns="http://www.w3.org/2000/svg" xmlns:xlink="http://www.w3.org/1999/xlink" viewBox="0 0 1000 1000">
  <defs>
    <style>
      .cls-1 {
        fill: url(#linear-gradient);
      }

      .cls-1, .cls-2 {
        stroke-width: 0px;
      }

      .cls-2 {
        fill: #000;
      }
    </style>
    <linearGradient id="linear-gradient" x1="451.02" y1="333.85" x2="881.24" y2="333.85" gradientUnits="userSpaceOnUse">
      <stop offset="0" stop-color="red"/>
      <stop offset=".29" stop-color="#f9250e"/>
      <stop offset=".58" stop-color="#f4421a"/>
      <stop offset=".82" stop-color="#f15321"/>
      <stop offset="1" stop-color="#f15a24"/>
    </linearGradient>
  </defs>
  <g id="s9qr3V.tif">
    <g>
      <path class="cls-2" d="M587.45,573.68c-1.97-11.44-8.57-19.59-19.74-23.09-11.39-3.57-21.71-1.1-30.27,7.5-18.72,18.81-37.41,37.65-55.1,55.46-32.2-32.16-63.81-63.73-96.57-96.46,2.03-1.61,5.16-3.64,7.75-6.2,16.48-16.34,32.94-32.7,49.19-49.26,8.22-8.38,10.16-18.65,6.58-29.65-3.63-11.16-11.84-17.62-23.29-19.49-10.83-1.77-19.55,2.63-27.08,10.25-18.23,18.43-36.6,36.71-55.55,55.68-5.77-5.95-10.95-11.5-16.37-16.81-14.26-14-30.88-13.97-45.14.16-17.78,17.63-36.08,34.79-53,53.21-46.03,50.11-62.34,109.17-50.29,175.97,4.05,22.46,14.3,42.54,28.45,63.36-2.98,2.04-6.14,3.56-8.5,5.9-23.2,23-46.32,46.08-69.34,69.26-13.29,13.38-13.86,31.07-1.69,43.17,12.15,12.08,29.67,11.37,43.19-1.98,16.07-15.88,32.04-31.87,47.94-47.91,9.42-9.51,18.64-19.23,28-28.9,2.43,1.45,3.73,2.14,4.94,2.97,73.45,50.16,169.78,29,224.2-17.17,23.21-19.69,43.78-42.53,65.07-64.41,10.97-11.29,10.59-28.13-.18-39.77-5.79-6.26-12.32-11.83-19.31-18.45,19.46-19.48,37.75-37.86,56.13-56.14,7.59-7.56,11.85-16.38,9.99-27.18ZM392.46,760.25c33.41-11.13,60.69-35.23,84.57-65.44-57.2-57.18-114.41-114.36-173.13-173.06,58.72,58.69,115.93,115.87,173.14,173.06-23.88,30.21-51.17,54.31-84.57,65.44ZM362.26,766.45c10.44-.89,20.33-2.96,29.75-6.06-9.41,3.1-19.3,5.17-29.75,6.06Z"/>
      <path class="cls-1" d="M872.57,127.48c-11.68-11.7-29.33-11.69-41.84.5-15.52,15.13-30.74,30.58-46.03,45.94-10.52,10.57-20.94,21.25-31.59,32.07-6.68-4.04-11.71-7.55-17.13-10.3-71.36-36.31-139.65-25.79-202.77,18.24-26.43,18.43-47.56,44.54-70.85,67.4-15.16,14.88-15.05,31.41-.06,46.4,69.93,69.98,139.88,139.92,209.86,209.85,15.06,15.04,31.4,15.11,46.48.18,17.57-17.41,35.65-34.36,52.35-52.56,45.99-50.12,62.39-109.16,50.4-175.96-4.03-22.48-14.23-42.59-27.21-61.67,2.65-2.78,4.89-5.22,7.23-7.57,23.52-23.55,47.2-46.94,70.53-70.67,12.31-12.52,12.29-30.19.65-41.85Z"/>
    </g>
  </g>
</svg>